<?xml version="1.0" encoding="utf-8"?>
<!-- Generator: Adobe Illustrator 18.1.1, SVG Export Plug-In . SVG Version: 6.00 Build 0)  -->
<svg version="1.1" id="Layer_1" xmlns="http://www.w3.org/2000/svg" xmlns:xlink="http://www.w3.org/1999/xlink" x="0px" y="0px"
	 viewBox="-241 359.9 113 123" enable-background="new -241 359.9 113 123" xml:space="preserve">
<path id="path-1" fill="#192A3B" d="M-267.8,512V330.8h166.5V512H-267.8z M-129,405.2c0.2-10.8-4.4-18.8-13.8-24
	c-9.4-5.2-18.7-10.6-27.9-16.2c-9.2-5.6-18.4-5.6-27.6,0c-9.2,5.5-18.5,10.9-27.9,16.2c-9.4,5.2-14,13.2-13.8,24
	c0.2,10.8,0.2,21.6,0,32.3c-0.2,10.8,4.4,18.8,13.8,24c9.4,5.2,18.7,10.6,27.9,16.2c9.2,5.5,18.4,5.5,27.6,0
	c9.2-5.5,18.5-10.9,27.9-16.2c9.4-5.2,14-13.2,13.8-24C-129.2,426.8-129.2,416-129,405.2z"/>
</svg>
