<svg xmlns="http://www.w3.org/2000/svg" xmlns:xlink="http://www.w3.org/1999/xlink" preserveAspectRatio="xMidYMid" width="68" height="74" viewBox="0 0 68 74">
  <defs>
    <style>

      .cls-2 {
        fill: #ffffff;
      }
    </style>
  </defs>
  <path d="M-0.000,74.000 C-0.000,74.000 -0.000,-0.000 -0.000,-0.000 C-0.000,-0.000 68.000,-0.000 68.000,-0.000 C68.000,-0.000 68.000,74.000 68.000,74.000 C68.000,74.000 -0.000,74.000 -0.000,74.000 ZM67.002,27.387 C67.113,20.974 64.377,16.212 58.795,13.102 C53.213,9.991 47.687,6.784 42.215,3.482 C36.744,0.179 31.272,0.179 25.801,3.482 C20.329,6.784 14.803,9.991 9.221,13.102 C3.639,16.212 0.903,20.974 1.014,27.387 C1.124,33.801 1.124,40.213 1.014,46.626 C0.903,53.040 3.639,57.801 9.221,60.912 C14.803,64.022 20.329,67.229 25.801,70.532 C31.272,73.834 36.744,73.834 42.215,70.532 C47.687,67.229 53.213,64.022 58.795,60.912 C64.377,57.801 67.113,53.040 67.002,46.626 C66.892,40.213 66.892,33.801 67.002,27.387 Z" id="path-1" class="cls-2" fill-rule="evenodd"/>
</svg>
