<?xml version="1.0"?>
<!--Icons from directory ""-->
<svg xmlns="http://www.w3.org/2000/svg" width="105" height="2625" viewBox="0 0 105 2625"><svg xmlns:xlink="http://www.w3.org/1999/xlink" id="answer-key" xml:space="preserve" height="105" viewBox="0 0 105 105" width="105" version="1.1" y="0" x="0px" enable-background="new 0 0 105 105">		<path stroke-linejoin="round" d="m76.867 41.252h8.502v59.797h-64.431c-5.415 0-9.808-4.393-9.808-9.807v-77.485c0-5.417 4.393-9.808 9.808-9.808h55.93v37.302z" stroke="#6E7072" stroke-linecap="round" stroke-miterlimit="10" stroke-width="3" fill="#fff"/>		<path stroke-linejoin="round" d="m93.869 92.394c0 4.695-3.805 8.502-8.499 8.502-4.695 0-8.501-3.807-8.501-8.502v-57.215h17v57.211z" stroke="#6E7072" stroke-linecap="round" stroke-miterlimit="10" stroke-width="3" fill="#559DCC"/><g fill="#6E7072">	<path d="m43.366 19.718c-10.205 0-18.476 8.272-18.476 18.477 0 10.204 8.271 18.476 18.476 18.476s18.476-8.272 18.476-18.476c0-10.205-8.272-18.477-18.476-18.477zm0 30.544c-6.666 0-12.068-5.402-12.068-12.067s5.402-12.068 12.068-12.068 12.068 5.403 12.068 12.068-5.403 12.067-12.068 12.067z"/>	<rect y="52.928" x="39.502" height="39.306" width="7.726"/>	<rect y="77.54" x="44.079" height="4.871" width="10.642"/>	<rect y="87.362" x="44.079" height="4.871" width="10.642"/></g></svg><svg xmlns:xlink="http://www.w3.org/1999/xlink" id="doc-audio" xml:space="preserve" height="105" viewBox="0 0 105 105" width="105" version="1.1" y="105" x="0px" enable-background="new 0 0 105 105">		<defs>			<circle id="doc-audio-SVGID_1_" cy="52.5" cx="52.5" r="50"/>		</defs>		<clipPath id="doc-audio-SVGID_2_">			<use overflow="visible" xlink:href="#doc-audio-SVGID_1_"/>		</clipPath>		<circle cx="52.5" cy="52.5" fill="#EF8622" r="50" clip-path="url(#doc-audio-SVGID_2_)"/>		<circle cx="52.5" cy="52.5" fill="#559DCC" r="50" clip-path="url(#doc-audio-SVGID_2_)"/>		<path fill="#fff" d="m28.819 39.367h-7.252c-3.671 0-6.647 2.976-6.647 6.646v13.294c0 3.669 2.977 6.646 6.647 6.646h7.252v-26.586z" clip-path="url(#doc-audio-SVGID_2_)"/>		<path fill="#fff" d="m58.325 23.796c-0.413-0.218-0.91-0.188-1.296 0.076l-22.432 15.416v26.425l22.433 15.415c0.213 0.146 0.461 0.221 0.711 0.221 0.201 0 0.401-0.047 0.585-0.146 0.413-0.217 0.671-0.644 0.671-1.11v-55.185c-0.001-0.467-0.259-0.896-0.672-1.112z" clip-path="url(#doc-audio-SVGID_2_)"/>		<g clip-path="url(#doc-audio-SVGID_2_)">			<defs>					<rect id="doc-audio-SVGID_3_" transform="matrix(.7071 -.7071 .7071 .7071 -14.044 71.095)" height="39.712" width="39.712" y="32.644" x="58.939"/>			</defs>			<clipPath id="doc-audio-SVGID_4_">				<use overflow="visible" xlink:href="#doc-audio-SVGID_3_"/>			</clipPath>			<g clip-path="url(#doc-audio-SVGID_4_)">				<path d="m59.731 84.771c-1.657 0-3-1.343-3-3s1.343-3 3-3c14.485 0 26.27-11.785 26.27-26.271 0-14.485-11.784-26.27-26.27-26.27-1.657 0-3-1.343-3-3s1.343-3 3-3c17.794 0 32.27 14.476 32.27 32.27s-14.476 32.271-32.27 32.271z" fill="#fff"/>			</g>			<g clip-path="url(#doc-audio-SVGID_4_)">				<path d="m55.814 74.919c-1.656 0-3-1.343-3-3s1.344-3 3-3c9.053 0 16.417-7.365 16.417-16.418s-7.364-16.419-16.417-16.419c-1.656 0-3-1.343-3-3s1.344-3 3-3c12.361 0 22.417 10.057 22.417 22.419 0 12.361-10.055 22.418-22.417 22.418z" fill="#fff"/>			</g>		</g></svg><svg xmlns:xlink="http://www.w3.org/1999/xlink" id="doc-excel" xml:space="preserve" height="105" viewBox="0 0 105 105" width="105" version="1.1" y="210" x="0px" enable-background="new 0 0 105 105">	<rect y="36.509" x="13.264" height="13.268" width="78.846" fill="#FBBF15"/>	<path d="m91.735 39.167h-78.844v-27c0-5.522 4.479-10 10.001-10h40.779l28.064 28.5v8.5z" fill="#3BB34A"/>	<polygon points="91.735 30.667 63.671 30.667 63.671 2.167" fill="#019547"/>	<rect y="35.509" x="12.891" height="3.658" width="78.845" fill="#019547"/>		<g stroke-linejoin="round" stroke="#019547" stroke-linecap="round" stroke-miterlimit="10" stroke-width="3" fill="none">				<line x1="28.268" y2="102.83" x2="28.268" y1="37.338"/>				<line x1="44.576" y2="102.83" x2="44.576" y1="37.337"/>				<line x1="60.885" y2="102.83" x2="60.885" y1="37.338"/>				<line x1="77.192" y2="102.83" x2="77.192" y1="37.338"/>		</g>		<g stroke-linejoin="round" stroke="#019547" stroke-linecap="round" stroke-miterlimit="10" stroke-width="3" fill="none">				<line x1="91.387" y2="49.776" x2="13.986" y1="49.776"/>				<line x1="91.385" y2="68.9" x2="13.986" y1="68.9"/>				<line x1="91.385" y2="88.024" x2="13.986" y1="88.024"/>		</g>		<path d="m36.706 13.939l-4.431 6.104 4.431 6.144c0.631 0.818 0.409 2.122-0.373 2.68-0.373 0.261-0.781 0.409-1.19 0.409-0.598 0-1.155-0.337-1.638-0.818l-3.725-5.102-3.722 5.102c-0.409 0.481-0.931 0.818-1.524 0.818-0.409 0-0.857-0.148-1.191-0.409-0.857-0.558-1.043-1.861-0.409-2.68l4.465-6.144-4.465-6.104c-0.634-0.782-0.448-2.046 0.409-2.643 0.891-0.634 2.046-0.446 2.716 0.408l3.722 4.988 3.725-4.988c0.707-0.854 1.897-1.042 2.828-0.408 0.781 0.598 1.003 1.861 0.372 2.643z" fill="#fff"/>	<path stroke-linejoin="round" d="m91.735 30.667l-28.064-28.5h-40.779c-5.522 0-10.001 4.478-10.001 10v80c0 5.522 4.479 10 10.001 10h58.844c5.523 0 10-4.478 10-10v-61.503" stroke="#019547" stroke-linecap="round" stroke-miterlimit="10" stroke-width="3" fill="none"/></svg><svg xmlns:xlink="http://www.w3.org/1999/xlink" id="doc-image" xml:space="preserve" height="105" viewBox="0 0 105 105" width="105" version="1.1" y="315" x="0px" enable-background="new 0 0 105 105">	<path d="m91.135 39.433h-76.352v-26.147c0-5.347 4.336-9.684 9.684-9.684h39.49l27.178 27.599v8.232z" fill="#559DCC"/>		<rect y="51.181" x="29.395" height="34.922" width="47.129" fill="#559DCC"/>		<circle cy="60.98" cx="39.469" r="4.199" fill="#fff"/>		<polygon points="35.27 80.771 50.357 65.686 53.863 74.727 68.949 59.641 68.949 80.771" fill="#fff"/>	<path stroke="#3167AF" stroke-width="3" stroke-miterlimit="10" d="m91.135 31.201" fill="none"/>	<polygon points="90.112 32.307 62.935 32.307 62.935 4.707" fill="#457FA2"/>	<path stroke-linejoin="round" d="m91.135 34.115v56.641c0 5.35-4.338 9.684-9.686 9.684h-56.982c-5.348 0-9.684-4.334-9.684-9.684v-77.47c0-5.347 4.336-9.684 9.684-9.684h39.49l25.824 26.226 1.354 1.373v2.914z" stroke="#6E7072" stroke-linecap="round" stroke-miterlimit="10" stroke-width="3" fill="none"/>		<line stroke-linejoin="round" x1="15.325" y2="39.619" x2="90.675" stroke="#6E7072" stroke-linecap="round" stroke-miterlimit="10" y1="39.619" stroke-width="3" fill="none"/></svg><svg xmlns:xlink="http://www.w3.org/1999/xlink" id="doc-keynote" xml:space="preserve" height="105" viewBox="0 0 105 105" width="105" version="1.1" y="420" x="0px" enable-background="new 0 0 105 105">	<path d="m84.006 27.96c0-4.534-3.676-8.21-8.209-8.21h-46.594c-4.533 0-8.21 3.676-8.21 8.21l-3.282 30.649h69.578l-3.283-30.649z" fill="#559DCC"/>	<rect y="76.584" x="48.942" height="23.307" width="7.116" fill="#559DCC"/>	<path d="m73.64 99.479c0 2.268-1.84 4.105-4.104 4.105h-34.07c-2.268 0-4.104-1.838-4.104-4.105 0-2.266 1.837-4.104 4.104-4.104h34.07c2.264 0.004 4.104 1.842 4.104 4.108z" fill="#6E7072"/>	<ellipse cy="28.508" cx="31.593" rx="5.445" ry="4.104" fill="#fff"/>		<path d="m31.593 29.572c-0.681 0-1.232-0.551-1.232-1.23v-23.506c0-0.68 0.552-1.23 1.232-1.23h17.03c0.682 0 1.232 0.551 1.232 1.23s-0.551 1.231-1.232 1.231h-15.799v22.274c0 0.68-0.552 1.231-1.231 1.231z" fill="#6E7072"/>	<path d="m62.662 4.976c0 1.964-1.594 3.556-3.559 3.556h-13.207c-1.966 0-3.559-1.592-3.559-3.556 0-1.966 1.593-3.56 3.559-3.56h13.207c1.965 0 3.559 1.594 3.559 3.56z" fill="#559DCC"/>	<rect y="29.328" x="42.338" height="21.62" width="20.324" fill="#fff"/><g fill="#6E7072">	<path d="m86.059 63.121c0 4.535-3.676 8.211-8.211 8.211h-50.698c-4.533 0-8.208-3.676-8.208-8.211h67.117z"/>	<rect y="34.988" x="45.896" height="3.283" width="13.207"/>	<rect y="42.617" x="45.896" height="3.283" width="13.207"/></g></svg><svg xmlns:xlink="http://www.w3.org/1999/xlink" id="doc-misc" xml:space="preserve" height="105" viewBox="0 0 105 105" width="105" version="1.1" y="525" x="0px" enable-background="new 0 0 105 105"><g stroke-width="3" stroke-miterlimit="10">		<path stroke-linejoin="round" d="m91.922 31l-28.065-28.5h-40.779c-5.523 0-10 4.479-10 10v80c0 5.523 4.477 10 10 10h58.844c5.523 0 10-4.477 10-10v-61.5" stroke="#6E7072" stroke-linecap="round" fill="#fff"/>	<path stroke="#FAA21D" d="m91.922 31" fill="none"/>	<path stroke="#FAA21D" d="m91.922 31" fill="none"/>		<polygon stroke-linejoin="round" points="91.922 31.688 63.857 31.688 63.857 3.188" stroke="#6E7072" stroke-linecap="round" fill="#559DCC"/>	</g>		<g fill="#6E7072">			<rect y="59.501" x="29.135" height="7.998" width="46.73"/>				<rect y="41.349" x="29.135" height="7.996" width="46.73"/>				<rect y="77.654" x="29.135" height="7.997" width="46.73"/>		</g></svg><svg xmlns:xlink="http://www.w3.org/1999/xlink" id="doc-pdf" xml:space="preserve" height="105" viewBox="0 0 105 105" width="105" version="1.1" y="630" x="0px" enable-background="new 0 0 105 105">	<path d="m90.676 39.912h-76.352v-26.146c0-5.348 4.334-9.684 9.684-9.684h39.492l27.176 27.598v8.232z" fill="#E7282B"/>	<polygon points="90.676 31.68 63.5 31.68 63.5 4.082" fill="#921E24"/>	<rect y="36.369" x="14.324" height="3.543" width="76.352" fill="#921E24"/>	<path d="m76.203 76.922c-1.137-1.791-5.082-2.166-8.191-2.166-1.672 0-3.6 0.115-5.693 0.357-1.465-0.836-2.889-1.777-4.178-2.803-3.246-2.662-5.66-7.191-7.176-11.738 1.359-4.938 2.188-12.646 0.51-14.42-0.938-0.992-3.062-1.311-4.117 1.045-1.318 2.953-0.416 8.387 1.189 13.648-1.012 3.516-2.564 7.775-5.059 12.803-1.652 3.318-3.186 6.189-4.613 8.637-6.172 1.793-10.25 7.154-10.674 9.273-0.127 0.619-0.061 1.107 0.189 1.412l0.16 0.088-0.016 0.031 1.189 0.609c0.355 0.184 0.746 0.275 1.158 0.275 2.711 0 6.516-4.195 11.332-12.49 5.287-1.885 12.562-3.402 19.16-4.074 4.18 2.227 8.754 3.518 11.672 3.518 2.287 0 3.203-1.877 3.203-1.877 0.459-0.974 0.229-1.695-0.045-2.128zm-46.058 15.435c0.303-1.652 3.865-5.844 8.107-9.018-3.354 5.577-6.057 8.61-8.107 9.018zm19.751-45.572c0.9-0.02 0.857 5.651-0.164 9.223-0.748-3.62-1.003-9.201 0.164-9.223zm-6.873 33.277c0.855-1.52 1.738-3.15 2.658-4.918 2.09-4.029 3.43-7.4 4.303-10.381 1.547 3.605 3.674 6.949 6.377 9.279 0.666 0.568 1.381 1.109 2.127 1.621-4.912 0.843-10.365 2.286-15.465 4.399zm31.104-0.916c-1.877 0-4.781-0.766-7.854-2.076 0.625-0.02 1.244-0.035 1.838-0.035 3.723 0 6.457 0.26 6.834 1.086 0.192 0.418-0.259 1.025-0.818 1.025z" fill="#C62129"/>	<path stroke-linejoin="round" d="m90.676 31.68l-27.176-27.598h-39.492c-5.35 0-9.684 4.336-9.684 9.684v77.469c0 5.35 4.334 9.684 9.684 9.684h56.984c5.348 0 9.684-4.334 9.684-9.684v-59.556" stroke="#921E24" stroke-linecap="round" stroke-miterlimit="10" stroke-width="3" fill="none"/></svg><svg xmlns:xlink="http://www.w3.org/1999/xlink" id="doc-ppt" xml:space="preserve" height="105" viewBox="0 0 105 105" width="105" version="1.1" y="735" x="0px" enable-background="new 0 0 105 105">	<path d="m90.674 39.913h-76.348v-26.148c0-5.346 4.336-9.684 9.682-9.684h39.492l27.174 27.6v8.232z" fill="#EF8622"/>	<path d="m50.715 76.423c0 8.164-6.623 14.787-14.789 14.787s-14.787-6.623-14.787-14.787c0-8.172 6.621-14.789 14.787-14.789v14.789h14.789z" fill="#F15E26"/>	<rect y="49.009" x="21.139" height="4.328" width="63.855" fill="#EF8622"/>	<g fill="#F15E26">		<rect y="61.634" x="68.195" height="4.326" width="16.799"/>		<rect y="74.257" x="68.195" height="4.328" width="16.799"/>		<rect y="86.88" x="68.195" height="4.33" width="16.799"/>	</g>	<g fill="#EF8622">		<rect y="61.634" x="58.93" height="4.326" width="4.57"/>		<rect y="74.257" x="58.93" height="4.328" width="4.57"/>		<rect y="86.88" x="58.93" height="4.33" width="4.57"/>	</g>	<polygon points="90.674 31.681 63.5 31.681 63.5 4.081" fill="#F15E26"/>	<rect y="36.368" x="14.326" height="3.545" width="76.348" fill="#F15E26"/>	<path stroke-linejoin="round" d="m90.674 33.616v57.619c0 5.35-4.334 9.684-9.682 9.684h-56.984c-5.346 0-9.682-4.334-9.682-9.684v-77.471c0-5.346 4.336-9.684 9.682-9.684h39.492l27.174 27.389v2.146z" stroke="#F15E26" stroke-linecap="round" stroke-miterlimit="10" stroke-width="3" fill="none"/></svg><svg xmlns:xlink="http://www.w3.org/1999/xlink" id="doc-smart" xml:space="preserve" height="105" viewBox="0 0 105 105" width="105" version="1.1" y="840" x="0px" enable-background="new 0 0 105 105">	<g fill="#559DCC">		<rect y="19.139" x="9.337" height="7.747" width="9.832"/>		<rect y="33.665" x="9.337" height="7.746" width="9.832"/>		<rect y="48.189" x="9.337" height="7.745" width="9.832"/>		<rect y="62.716" x="9.337" height="7.746" width="9.832"/>		<rect y="77.241" x="9.337" height="7.746" width="9.832"/>	</g>	<path d="m85.98 4.081h-57.13c-5.35 0-9.682 4.337-9.682 9.684v5.374h7.891v7.747h-7.891v6.779h7.891v7.746h-7.891v6.778h7.891v7.745h-7.891v6.781h7.891v7.746h-7.891v6.779h7.891v7.746h-7.891v6.247c0 5.35 4.332 9.685 9.682 9.685h57.13c5.346 0 9.683-4.335 9.683-9.685v-77.47c0-5.347-4.337-9.684-9.683-9.684z" fill="#559DCC"/><g fill="#3090CF">	<line y1="70.462" x2="19.169" x1="19.169" y2="77.241"/>	<line y1="55.935" x2="19.169" x1="19.169" y2="62.716"/>	<line y1="41.411" x2="19.169" x1="19.169" y2="48.189"/>	<line y1="26.886" x2="19.169" x1="19.169" y2="33.665"/>	</g><g fill="#fff">		<rect y="40.888" x="51.658" height="29.44" width="14.806"/>		<path d="m66.485 28.034v-6.756c0-4.096-3.318-7.417-7.411-7.417-4.096 0-7.416 3.321-7.416 7.417v6.756h14.827z"/>		<rect y="32.185" x="51.658" height="4.552" width="14.827"/>		<polygon points="66.485 74.195 62.776 76.131 59.064 74.195 55.361 76.131 51.658 74.195 52.771 76.746 59.058 91.138 65.368 76.746"/>	</g></svg><svg xmlns:xlink="http://www.w3.org/1999/xlink" id="doc-worddoc" xml:space="preserve" height="105" viewBox="0 0 105 105" width="105" version="1.1" y="945" x="0px" enable-background="new 0 0 105 105">	<path d="m90.258 39.619h-76.35v-26.147c0-5.347 4.336-9.684 9.684-9.684h39.488l27.178 27.599v8.232z" fill="#559DCC"/>	<polygon points="89.036 32.306 61.858 32.306 61.858 4.708" fill="#457FA2"/>		<g fill="#559DCC">			<rect y="49.671" x="28.717" height="7.996" width="46.73"/>			<rect y="64.514" x="28.717" height="7.998" width="46.73"/>			<rect y="79.359" x="28.717" height="7.997" width="46.73"/>		</g>		<path d="m49.863 13.921l-6.308 14.829c-0.039 0.077-0.076 0.191-0.152 0.307 0 0.037-0.037 0.037-0.037 0.037-0.039 0.076-0.115 0.153-0.193 0.229-0.035 0.038-0.072 0.038-0.072 0.038-0.078 0.077-0.156 0.152-0.229 0.191 0 0.038-0.043 0.038-0.043 0.076-0.113 0.076-0.189 0.153-0.342 0.19 0 0-0.039 0-0.039 0.037-0.076 0-0.191 0.041-0.305 0.078h-0.076c-0.117 0.038-0.23 0.038-0.385 0.038-0.111 0-0.227 0-0.342-0.038h-0.078c-0.074-0.037-0.154-0.078-0.268-0.078l-0.039-0.037h-0.037c-0.117-0.037-0.229-0.114-0.346-0.229v-0.038c-0.111-0.039-0.15-0.114-0.227-0.191 0 0-0.076 0-0.076-0.038-0.078-0.076-0.152-0.153-0.189-0.229 0 0-0.039 0-0.039-0.037-0.078-0.115-0.115-0.229-0.154-0.307l-2.791-6.611-2.711 6.611c-0.043 0.077-0.117 0.191-0.191 0.307v0.037c-0.078 0.076-0.154 0.153-0.23 0.229 0 0.038-0.039 0.038-0.039 0.038-0.076 0.077-0.152 0.152-0.229 0.229-0.154 0.114-0.227 0.191-0.344 0.229h-0.076s-0.039 0-0.039 0.037c-0.076 0-0.188 0.041-0.23 0.078h-0.076c-0.152 0.038-0.268 0.038-0.381 0.038-0.152 0-0.268 0-0.381-0.038h-0.115c-0.076-0.037-0.154-0.078-0.229-0.078-0.039-0.037-0.039-0.037-0.078-0.037-0.115-0.037-0.268-0.114-0.342-0.229-0.041 0-0.041 0-0.041-0.038-0.039-0.039-0.115-0.114-0.229-0.191l-0.076-0.038c-0.039-0.076-0.115-0.153-0.152-0.229-0.037 0-0.037 0-0.037-0.037-0.08-0.115-0.117-0.229-0.191-0.307l-6.269-14.828c-0.461-1.031 0.035-2.178 1.107-2.636 0.918-0.421 2.1 0.037 2.52 1.146l4.512 10.28 2.676-6.383c0.344-0.764 1.07-1.224 1.871-1.224 0.842 0 1.568 0.46 1.871 1.224l2.715 6.383 4.512-10.28c0.383-1.108 1.604-1.566 2.559-1.146 1.032 0.458 1.569 1.605 1.11 2.636z" fill="#fff"/>	<path stroke-linejoin="round" d="m90.258 31.387l-27.178-27.599h-39.488c-5.348 0-9.684 4.337-9.684 9.684v77.47c0 5.35 4.336 9.685 9.684 9.685h56.982c5.346 0 9.684-4.335 9.684-9.685v-59.558" stroke="#6E7072" stroke-linecap="round" stroke-miterlimit="10" stroke-width="3" fill="none"/>		<line stroke-linejoin="round" x1="13.908" y2="39.619" x2="90.258" stroke="#6E7072" stroke-linecap="round" stroke-miterlimit="10" y1="39.619" stroke-width="3" fill="none"/></svg><svg xmlns:xlink="http://www.w3.org/1999/xlink" id="folder-open" xml:space="preserve" height="105" viewBox="0 0 105 105" width="105" version="1.1" y="1050" x="0px" enable-background="new 0 0 105 105"><g stroke-linejoin="round" stroke="#6E7072" stroke-linecap="round" stroke-miterlimit="10" stroke-width="3">		<path d="m93.681 95.789v-73.243h-50.782l0.013-3c0-5.975-4.843-10.817-10.815-10.817h-17.271c-5.973 0-10.815 4.843-10.815 10.817l0.013 3v73.243h89.657z" fill="#559DCC"/>		<path d="m100.99 85.453c0 5.975-4.843 10.818-10.816 10.818h-85.728 3.076c5.975 0 10.815-4.844 10.815-10.818v-39.623h35.873v-10h46.78v49.623z" fill="#fff"/></g></svg><svg xmlns:xlink="http://www.w3.org/1999/xlink" id="folder" xml:space="preserve" height="105" viewBox="0 0 105 105" width="105" version="1.1" y="1155" x="0px" enable-background="new 0 0 105 105"><g stroke-linejoin="round" stroke="#6E7072" stroke-linecap="round" stroke-miterlimit="10" stroke-width="3">		<path d="m90.091 19.579h-45.404v-4.121c0-2.772-2.248-5.021-5.021-5.021h-30.618c-2.772 0-5.021 2.248-5.021 5.021v78.97h86.063c2.774 0 5.021-2.248 5.021-5.021v-63.803c0-2.773-2.246-6.025-5.02-6.025z" fill="#559DCC"/>		<path d="m4.104 94.562h86.006c6 0 10.862-4.863 10.862-10.863v-49.365c0-2.774-2.248-5.021-5.021-5.021h-37.347c-2.772 0-5.021 2.247-5.021 5.021v5.044h-44.685c-2.772 0-4.792 2.247-4.792 5.021v50.163z" fill="#fff"/></g></svg><svg xmlns:xlink="http://www.w3.org/1999/xlink" id="link" xml:space="preserve" height="105" viewBox="0 0 105 105" width="105" version="1.1" y="1260" x="0px" enable-background="new 0 0 105 105">	<path d="m55.967 48.088c-6.479-5.65-7.154-15.521-1.506-21.999l10.143-11.633c5.652-6.48 15.52-7.155 22-1.505 6.479 5.649 7.154 15.518 1.504 21.998l-10.145 11.633c-5.649 6.479-15.518 7.154-21.996 1.506zm26.515-30.412c-3.873-3.378-9.773-2.975-13.152 0.899l-10.144 11.634c-3.377 3.874-2.975 9.775 0.9 13.152 3.875 3.379 9.775 2.975 13.152-0.898l10.145-11.635c3.379-3.874 2.974-9.773-0.901-13.152z" fill="#559DCC"/>	<path d="m18.396 91.172c-6.479-5.648-7.154-15.516-1.504-21.996l10.143-11.635c5.65-6.477 15.52-7.152 22-1.504 6.479 5.65 7.154 15.52 1.504 22l-10.144 11.631c-5.649 6.48-15.518 7.156-21.999 1.504zm26.518-30.408c-3.875-3.379-9.773-2.977-13.152 0.898l-10.145 11.633c-3.379 3.875-2.975 9.775 0.9 13.154 3.873 3.377 9.773 2.975 13.152-0.9l10.143-11.633c3.379-3.875 2.975-9.775-0.898-13.152z" fill="#559DCC"/>	<path d="m37.059 69.771c-1.303-1.139-1.439-3.117-0.301-4.422l26.762-30.692c1.137-1.307 3.115-1.44 4.422-0.304 1.305 1.139 1.441 3.117 0.303 4.422l-26.765 30.694c-1.136 1.306-3.117 1.441-4.421 0.302z" fill="#6E7072"/></svg><svg xmlns:xlink="http://www.w3.org/1999/xlink" id="passage" xml:space="preserve" height="105" viewBox="0 0 105 105" width="105" version="1.1" y="1365" x="0px" enable-background="new 0 0 105 105">	<path d="m76.839 41.257h8.491v59.774h-64.355c-5.409 0-9.797-4.39-9.797-9.805v-77.452c0-5.415 4.388-9.805 9.797-9.805h55.864v37.289z" fill="#F2F2F2"/><g stroke="#6E7072" stroke-width="3" stroke-miterlimit="10">		<path stroke-linejoin="round" d="m76.839 41.257h8.491v59.774h-64.355c-5.409 0-9.797-4.39-9.797-9.805v-77.452c0-5.415 4.388-9.805 9.797-9.805h55.864v37.289z" stroke-linecap="round" fill="#fff"/>		<path stroke-linejoin="round" d="m93.822 92.533c0 4.694-3.801 8.498-8.49 8.498s-8.491-3.804-8.491-8.498v-57.188h16.981v57.189z" stroke-linecap="round" fill="#559DCC"/>	<line y2="69.811" x1="23.563" x2="64.838" y1="69.811" fill="none"/>	<line y2="84.499" x1="23.563" x2="64.838" y1="84.499" fill="none"/>	</g>		<line y2="55.12" x1="23.563" x2="64.838" stroke="#6E7072" stroke-miterlimit="10" y1="55.12" stroke-width="3" fill="none"/>	<line y2="40.134" x1="23.563" x2="64.838" stroke="#6E7072" stroke-miterlimit="10" y1="40.134" stroke-width="3" fill="none"/>	<rect y="16.616" x="23.563" height="10.671" width="41.274" fill="#559DCC"/></svg><svg xmlns:xlink="http://www.w3.org/1999/xlink" id="question-choice" xml:space="preserve" height="105" viewBox="0 0 105 105" width="105" version="1.1" y="1470" x="0px" enable-background="new 0 0 105 105">			<path stroke-linejoin="round" d="m76.773 41.295h8.469v59.569h-64.183c-5.395 0-9.771-4.376-9.771-9.77v-77.184c0-5.396 4.376-9.771 9.771-9.771h55.715v37.16z" stroke="#6E7072" stroke-linecap="round" stroke-miterlimit="10" stroke-width="3" fill="#fff"/>		<path stroke-linejoin="round" d="m93.712 92.396c0 4.679-3.79 8.469-8.468 8.469-4.676 0-8.469-3.79-8.469-8.469v-56.988h16.937v56.993z" stroke="#6E7072" stroke-linecap="round" stroke-miterlimit="10" stroke-width="3" fill="#559DCC"/>	<g stroke="#6E7072" stroke-width="3" stroke-miterlimit="10" fill="none">		<line y2="46.734" x1="43.76" x2="65.781" y1="46.734"/>		<line y2="56.926" x1="43.76" x2="65.781" y1="56.926"/>	</g>	<path d="m21.848 59.453v-15.245c0-0.801 0.646-1.422 1.421-1.422h0.078 0.025 3.566c2.712 0 4.908 2.197 4.908 4.91 0 1.11-0.361 2.119-0.981 2.945 1.55 0.98 2.61 2.713 2.61 4.677 0 3.072-2.48 5.555-5.529 5.555h-4.574c-0.025 0-0.025-0.027-0.025-0.027-0.052 0-0.052 0.027-0.078 0.027-0.775 0-1.421-0.646-1.421-1.42zm2.867-9.665h2.223c1.136 0 2.04-0.955 2.04-2.092 0-1.136-0.904-2.042-2.04-2.042h-2.223v4.134zm0 8.217h3.23c1.473-0.025 2.661-1.19 2.661-2.687 0-1.474-1.188-2.636-2.661-2.661h-3.23v5.348z" fill="#6E7072"/>	<g stroke="#6E7072" stroke-width="3" stroke-miterlimit="10" fill="none">		<line y2="14.858" x1="43.76" x2="65.781" y1="14.858"/>		<line y2="25.05" x1="43.76" x2="65.781" y1="25.05"/>	</g>	<path d="m30.813 24.722h-6.278l-1.267 3.358c-0.232 0.568-0.775 0.905-1.344 0.905-0.18 0-0.335-0.026-0.489-0.078-0.751-0.284-1.112-1.111-0.854-1.861l5.71-15.217c0.232-0.569 0.801-0.93 1.369-0.905 0.594-0.025 1.137 0.336 1.369 0.905l5.711 15.217c0.258 0.75-0.104 1.577-0.854 1.861-0.128 0.052-0.311 0.078-0.49 0.078-0.568 0-1.112-0.336-1.318-0.905l-1.265-3.358zm-1.06-2.842l-2.093-5.555-2.093 5.555h4.186z" fill="#6E7072"/>	<path d="m19.662 83.435c0.025-5.117 4.315-9.274 9.482-9.301 2.274 0 4.342 0.749 5.968 2.015 0.621 0.517 0.724 1.421 0.259 2.067-0.517 0.644-1.472 0.749-2.067 0.285-1.136-0.932-2.558-1.421-4.159-1.421-1.783 0-3.436 0.723-4.651 1.859-1.162 1.187-1.885 2.738-1.885 4.495s0.723 3.357 1.885 4.493c1.215 1.138 2.869 1.862 4.651 1.862 1.601 0 2.997-0.489 4.159-1.421 0.595-0.441 1.551-0.335 2.067 0.284 0.465 0.647 0.362 1.575-0.259 2.067-1.626 1.267-3.694 2.015-5.968 2.015-5.167 0.001-9.457-4.159-9.482-9.299z" fill="#6E7072"/>	<g stroke="#6E7072" stroke-width="3" stroke-miterlimit="10" fill="none">		<line y2="78.339" x1="43.76" x2="65.781" y1="78.339"/>		<line y2="88.53" x1="43.76" x2="65.781" y1="88.53"/>	</g></svg><svg xmlns:xlink="http://www.w3.org/1999/xlink" id="question-open" xml:space="preserve" height="105" viewBox="0 0 105 105" width="105" version="1.1" y="1575" x="0px" enable-background="new 0 0 105 105">			<path stroke-linejoin="round" d="m83.178 40.697h8.537v60.045h-64.695c-5.44 0-9.85-4.412-9.85-9.849v-66.968c0-5.438 4.41-9.848 9.85-9.848h56.158v26.622z" stroke="#6E7072" stroke-linecap="round" stroke-miterlimit="10" stroke-width="3" fill="#fff"/><g stroke="#6E7072" stroke-width="3" stroke-miterlimit="10" fill="none">		<line y2="66.178" x1="26.69" x2="47.324" y1="66.178"/>		<line y2="84.136" x1="26.69" x2="47.324" y1="84.136"/>		<line y2="66.178" x1="64.115" x2="53.452" y1="66.178"/>		<line y2="84.136" x1="64.115" x2="53.452" y1="84.136"/>		</g>			<line y2="48.221" x1="64.115" x2="53.452" stroke="#6E7072" stroke-miterlimit="10" y1="48.221" stroke-width="3" fill="none"/>		<line y2="66.178" x1="74.291" x2="69.975" stroke="#6E7072" stroke-miterlimit="10" y1="66.178" stroke-width="3" fill="none"/>		<line y2="84.136" x1="74.291" x2="69.975" stroke="#6E7072" stroke-miterlimit="10" y1="84.136" stroke-width="3" fill="none"/>			<line y2="48.221" x1="74.291" x2="69.975" stroke="#6E7072" stroke-miterlimit="10" y1="48.221" stroke-width="3" fill="none"/>		<circle cy="28.88" cx="29.373" r="26.622" fill="#559DCC"/>		<path d="m31.453 32.435v3.61c0 1.556-1.167 2.723-2.722 2.723-1.444 0-2.722-1.167-2.722-2.723v-5.778c0-0.054 0.055-0.054 0.055-0.11-0.055-0.055-0.055-0.055-0.055-0.111 0-1.445 1.278-2.722 2.722-2.722 3.499 0 6.332-2.777 6.332-6.221 0-3.5-2.833-6.223-6.332-6.223-2.278 0-4.278 1.222-5.334 3.056-0.776 1.333-2.443 1.778-3.777 0.999-1.277-0.777-1.721-2.388-0.943-3.722 1.999-3.444 5.777-5.778 10.055-5.778 6.444 0 11.721 5.223 11.721 11.667 0 5.5-3.834 10.111-9 11.333zm0 12.166v1c0 1.556-1.167 2.723-2.722 2.723-1.444 0-2.722-1.167-2.722-2.723v-1c0-1.5 1.278-2.72 2.722-2.72 1.555 0 2.722 1.221 2.722 2.72z" fill="#fff"/>		<path stroke-linejoin="round" d="m100.25 92.205c0 4.715-3.82 8.537-8.535 8.537s-8.537-3.822-8.537-8.537v-57.444h17.072v57.446z" stroke="#6E7072" stroke-linecap="round" stroke-miterlimit="10" stroke-width="3" fill="#559DCC"/></svg><svg xmlns:xlink="http://www.w3.org/1999/xlink" id="question-sort" xml:space="preserve" height="105" viewBox="0 0 105 105" width="105" version="1.1" y="1680" x="0px" enable-background="new 0 0 105 105">		<path stroke-linejoin="round" d="m81.375 41.237h8.514v59.879h-64.519c-5.423 0-9.821-4.398-9.821-9.823v-77.591c0-5.424 4.398-9.822 9.821-9.822h56.005v37.353z" stroke="#6E7072" stroke-linecap="round" stroke-miterlimit="10" stroke-width="3" fill="#fff"/><g fill="#6E7072">	<path d="m65.125 20.79"/>	<polygon points="73.88 27.789 65.125 19.032 56.37 27.789"/>	<path d="m65.126 84.751"/>	<polygon points="73.88 77.756 65.126 86.512 56.37 77.756"/>	</g><circle cy="52.771" cx="31.148" r="26.549" fill="#559DCC"/>	<path d="m33.223 56.317v3.599c0 1.553-1.164 2.718-2.714 2.718-1.44 0-2.715-1.165-2.715-2.718v-5.76c0-0.056 0.056-0.056 0.056-0.111-0.056-0.056-0.056-0.056-0.056-0.109 0-1.441 1.274-2.715 2.715-2.715 3.489 0 6.315-2.769 6.315-6.204 0-3.491-2.826-6.206-6.315-6.206-2.271 0-4.266 1.218-5.319 3.046-0.774 1.332-2.437 1.775-3.768 0.998-1.273-0.775-1.717-2.38-0.94-3.712 1.994-3.434 5.762-5.762 10.027-5.762 6.427 0 11.689 5.209 11.689 11.636 0 5.485-3.822 10.083-8.975 11.3zm0 12.132v0.998c0 1.553-1.164 2.716-2.714 2.716-1.44 0-2.715-1.163-2.715-2.716v-0.998c0-1.493 1.274-2.714 2.715-2.714 1.55 0 2.714 1.221 2.714 2.714z" fill="#fff"/>		<path stroke-linejoin="round" d="m98.4 92.447c0 4.7-3.81 8.514-8.512 8.514-4.701 0-8.513-3.813-8.513-8.514v-57.287h17.025v57.288z" stroke="#6E7072" stroke-linecap="round" stroke-miterlimit="10" stroke-width="3" fill="#559DCC"/></svg><svg xmlns:xlink="http://www.w3.org/1999/xlink" id="quiz" xml:space="preserve" height="105" viewBox="0 0 105 105" width="105" version="1.1" y="1785" x="0px" enable-background="new 0 0 105 105">			<path stroke-linejoin="round" d="m83.094 40.726h8.517v59.888h-64.531c-5.423 0-9.822-4.398-9.822-9.822v-66.793c0-5.424 4.399-9.823 9.822-9.823h56.014v26.554z" stroke="#6E7072" stroke-linecap="round" stroke-miterlimit="10" stroke-width="3" fill="#fff"/>		<path stroke-linejoin="round" d="m100.12 92.1c0 4.703-3.812 8.515-8.511 8.515-4.704 0-8.517-3.812-8.517-8.515v-57.302h17.027v57.297z" stroke="#6E7072" stroke-linecap="round" stroke-miterlimit="10" stroke-width="3" fill="#559DCC"/>	<g fill="#559DCC">		<circle cy="66.14" cx="29.429" r="5.403"/>		<circle cy="84.05" cx="29.429" r="5.403"/>	</g>		<line y2="66.14" x1="40.482" x2="72.045" stroke="#6E7072" stroke-miterlimit="10" y1="66.14" stroke-width="3" fill="none"/>		<line y2="84.05" x1="40.482" x2="72.045" stroke="#6E7072" stroke-miterlimit="10" y1="84.05" stroke-width="3" fill="none"/>			<line y2="48.229" x1="40.482" x2="72.045" stroke="#6E7072" stroke-miterlimit="10" y1="48.229" stroke-width="3" fill="none"/>	<circle cy="28.939" cx="29.43" r="26.553" fill="#559DCC"/>		<path d="m31.505 32.485v3.601c0 1.552-1.165 2.716-2.715 2.716-1.44 0-2.715-1.164-2.715-2.716v-5.763c0-0.055 0.056-0.055 0.056-0.11-0.056-0.056-0.056-0.056-0.056-0.111 0-1.442 1.274-2.715 2.715-2.715 3.49 0 6.316-2.769 6.316-6.206 0-3.491-2.826-6.207-6.316-6.207-2.271 0-4.267 1.219-5.32 3.048-0.775 1.33-2.437 1.773-3.769 0.997-1.272-0.774-1.717-2.381-0.939-3.711 1.994-3.436 5.762-5.763 10.028-5.763 6.427 0 11.692 5.209 11.692 11.637 0 5.485-3.824 10.085-8.977 11.303zm0 12.134v0.997c0 1.552-1.165 2.716-2.715 2.716-1.44 0-2.715-1.164-2.715-2.716v-0.997c0-1.495 1.274-2.713 2.715-2.713 1.55 0 2.715 1.218 2.715 2.713z" fill="#fff"/></svg><svg xmlns:xlink="http://www.w3.org/1999/xlink" id="resource_system" xml:space="preserve" height="105" viewBox="0 0 105 105" width="105" version="1.1" y="1890" x="0px" enable-background="new 0 0 105 105"><g stroke-linejoin="round" stroke="#6E7072" stroke-linecap="round" stroke-miterlimit="10" stroke-width="3">		<path d="m94.382 19.599h-27.586v-2.504c0-1.685-1.366-3.05-3.051-3.05h-18.6c-1.686 0-3.051 1.365-3.051 3.05v47.978h52.288c1.685 0 3.05-1.365 3.05-3.051v-38.763c0-1.685-1.366-3.66-3.05-3.66z" fill="#559DCC"/>		<path d="m42.141 65.154h52.253c3.645 0 6.599-2.955 6.599-6.6v-29.991c0-1.685-1.365-3.051-3.05-3.051h-22.69c-1.685 0-3.05 1.366-3.05 3.051v3.064h-27.148c-1.685 0-2.911 1.365-2.911 3.051v30.476z" fill="#fff"/>		<path d="m56.296 45.321h-27.586v-2.504c0-1.685-1.366-3.05-3.051-3.05h-18.6c-1.686 0-3.051 1.365-3.051 3.05v47.978h52.288c1.685 0 3.05-1.367 3.05-3.051v-38.762c0-1.685-1.366-3.661-3.05-3.661z" fill="#559DCC"/>		<path d="m4.076 90.955h52.253c3.645 0 6.599-2.955 6.599-6.6v-29.991c0-1.685-1.365-3.051-3.05-3.051h-22.692c-1.685 0-3.05 1.366-3.05 3.051v3.064h-27.149c-1.685 0-2.911 1.365-2.911 3.051v30.476z" fill="#fff"/></g></svg><svg xmlns:xlink="http://www.w3.org/1999/xlink" id="resource_system_shared" xml:space="preserve" height="105" viewBox="0 0 105 105" width="105" version="1.1" y="1995" x="0px" enable-background="new 0 0 105 105"><g stroke-linejoin="round" stroke="#6E7072" stroke-linecap="round" stroke-miterlimit="10" stroke-width="3">		<path d="m95.51 30.595h-27.586v-2.503c0-1.685-1.366-3.051-3.051-3.051h-18.601c-1.686 0-3.051 1.366-3.051 3.051v47.977h52.289c1.685 0 3.05-1.366 3.05-3.051v-38.762c0-1.686-1.366-3.661-3.05-3.661z" fill="#559DCC"/>		<path d="m43.269 76.15h52.253c3.645 0 6.599-2.955 6.599-6.6v-29.991c0-1.685-1.365-3.05-3.05-3.05h-22.692c-1.685 0-3.05 1.365-3.05 3.05v3.065h-27.148c-1.685 0-2.911 1.365-2.911 3.05v30.476z" fill="#fff"/>		<path d="m57.588 56.774h-27.586v-2.503c0-1.685-1.366-3.051-3.051-3.051h-18.6c-1.686 0-3.051 1.366-3.051 3.051v47.977h52.288c1.685 0 3.05-1.366 3.05-3.05v-38.764c0-1.685-1.366-3.662-3.05-3.662z" fill="#559DCC"/>		<path d="m5.347 102.33h52.253c3.645 0 6.599-2.954 6.599-6.599v-29.991c0-1.686-1.365-3.051-3.05-3.051h-22.693c-1.685 0-3.05 1.365-3.05 3.051v3.064h-27.148c-1.685 0-2.911 1.365-2.911 3.051v30.475z" fill="#fff"/>	</g>		<defs>			<polygon id="resource_system_shared-SVGID_1_" points="23.132 0.67 43.394 20.933 23.135 41.177 2.88 20.921"/>		</defs>		<clipPath id="resource_system_shared-SVGID_2_">			<use overflow="visible" xlink:href="#resource_system_shared-SVGID_1_"/>		</clipPath>			<path stroke-linejoin="round" d="m2.025 34.681c0-11.669 9.448-21.124 21.116-21.124 11.646 0.007 21.099 9.458 21.103 21.124" clip-path="url(#resource_system_shared-SVGID_2_)" stroke="#6E7072" stroke-linecap="round" stroke-miterlimit="10" stroke-width="3" fill="none"/>			<path stroke-linejoin="round" d="m9.131 37.502c-0.005-7.736 6.265-14.009 14.001-14.003 7.739-0.006 14.006 6.27 14.001 14.003" clip-path="url(#resource_system_shared-SVGID_2_)" stroke="#6E7072" stroke-linecap="round" stroke-miterlimit="10" stroke-width="3" fill="none"/>	<path d="m26.849 34.311c2.294 2.296 2.291 6.03 0 8.321-2.303 2.3-6.026 2.3-8.327 0-2.299-2.3-2.299-6.025 0-8.321 2.297-2.301 6.024-2.301 8.327 0z" fill="#6E7072"/></svg><svg xmlns:xlink="http://www.w3.org/1999/xlink" id="rubric" xml:space="preserve" height="105" viewBox="0 0 105 105" width="105" version="1.1" y="2100" x="0px" enable-background="new 0 0 105 105">	<path d="m100.65 27.917v61.487c0 5.787-4.69 10.477-10.478 10.477h-72.137v-71.964h82.615z" fill="#F2F2F2"/><g stroke-linejoin="round" stroke-linecap="round" stroke-miterlimit="10" stroke-width="3">		<line x1="18.163" y2="24.966" x2="100.77" stroke="#808184" y1="24.966" fill="none"/>		<path d="m100.65 27.917v61.487c0 5.787-4.69 10.477-10.478 10.477h-72.137v-71.964h82.615z" stroke="#6E7072" fill="#fff"/>	<path d="m59.468 24.966" stroke="#808184" fill="none"/></g><g stroke-linejoin="round" stroke="#6E7072" stroke-linecap="round" stroke-miterlimit="10" stroke-width="3">		<polygon points="100.77 27.917 18.163 27.917 18.163 5.119 100.77 5.119 100.77 16.084" fill="#559DCC"/>		<line x1="43.752" y2="99.881" x2="43.752" y1="5.119" fill="none"/>		<line x1="75.185" y2="99.881" x2="75.185" y1="5.119" fill="none"/>		<rect height="71.963" width="13.809" y="27.917" x="4.227" fill="#559DCC"/>		<line x1="100.52" y2="51.326" x2="4.354" y1="51.326" fill="none"/>		<line x1="100.52" y2="77.686" x2="4.354" y1="77.686" fill="none"/></g></svg><svg xmlns:xlink="http://www.w3.org/1999/xlink" id="templated" xml:space="preserve" height="105" viewBox="0 0 105 105" width="105" version="1.1" y="2205" x="0px" enable-background="new 0 0 105 105">	<path d="m90.598 13.664c0-5.363-4.348-9.71-9.709-9.71h-57.133c-5.361 0-9.709 4.349-9.709 9.71v77.672c0 5.363 4.348 9.71 9.709 9.71h57.132c5.363 0 9.709-4.347 9.709-9.71v-77.676z" fill="#F8BE19"/>		<path stroke-linejoin="round" d="m90.598 13.664c0-5.363-4.348-9.71-9.709-9.71h-57.133c-5.361 0-9.709 4.349-9.709 9.71v77.672c0 5.363 4.348 9.71 9.709 9.71h57.132c5.363 0 9.709-4.347 9.709-9.71v-77.676z" stroke="#6E7072" stroke-linecap="round" stroke-miterlimit="10" stroke-width="3" fill="#fff"/><g stroke="#FAA220" stroke-width="3" stroke-miterlimit="10" fill="none">	<path d="m92.953 31.625"/>	<path d="m92.953 31.625"/>	<path d="m90.158 30.469"/>	<path d="m90.158 30.469"/>	</g><g fill="#559DCC">		<rect y="16.147" x="24.634" height="8.608" width="55.479"/>			<rect y="54.263" x="24.531" height="7.984" width="35.075"/>			<rect y="67.566" x="24.531" height="7.982" width="35.075"/>			<rect y="80.87" x="24.531" height="7.98" width="35.075"/>		<rect y="32.254" x="25.606" height="14.888" width="33.031"/>		<rect y="32.254" x="65.605" height="55.668" width="13.611"/>	</g></svg><svg xmlns:xlink="http://www.w3.org/1999/xlink" id="trash" xml:space="preserve" height="105" viewBox="0 0 105 105" width="105" version="1.1" y="2310" x="0px" enable-background="new 0 0 105 105"><g fill="#6E7072">	<path d="m87.251 27.707v64c0 5.522-4.479 10-10 10h-49.5c-5.523 0-10-4.478-10-10v-64h69.5z"/>	<path d="m87.251 27.707v64c0 5.522-4.479 10-10 10h-49.5c-5.523 0-10-4.478-10-10v-64h69.5z"/>	<path d="m79.167 9.933h-9.885c0-3.667-2.973-6.64-6.641-6.64h-20.283c-3.666 0-6.639 2.973-6.639 6.64h-9.885c-5.951 0-10.775 4.824-10.775 10.774h74.881c0-5.95-4.822-10.774-10.773-10.774zm-39.998 0c0-2.258 1.83-4.089 4.088-4.089h18.488c2.258 0 4.088 1.831 4.088 4.089h-26.664z"/></g><g fill="#fff">	<path d="m32.251 91.207c0 1.564-1.27 2.833-2.834 2.833s-2.833-1.269-2.833-2.833v-55c0-1.564 1.269-2.833 2.833-2.833s2.834 1.269 2.834 2.833v55z"/>	<path d="m47.64 91.207c0 1.564-1.27 2.833-2.834 2.833s-2.833-1.269-2.833-2.833v-55c0-1.564 1.269-2.833 2.833-2.833s2.834 1.269 2.834 2.833v55z"/>	<path d="m63.028 91.207c0 1.564-1.268 2.833-2.832 2.833-1.566 0-2.834-1.269-2.834-2.833v-55c0-1.564 1.268-2.833 2.834-2.833 1.564 0 2.832 1.269 2.832 2.833v55z"/>	<path d="m78.417 91.207c0 1.564-1.268 2.833-2.832 2.833-1.565 0-2.834-1.269-2.834-2.833v-55c0-1.564 1.269-2.833 2.834-2.833 1.564 0 2.832 1.269 2.832 2.833v55z"/></g></svg><svg xmlns:xlink="http://www.w3.org/1999/xlink" id="video-v1" xml:space="preserve" height="105" viewBox="0 0 105 105" width="105" version="1.1" y="2415" x="0px" enable-background="new 0 0 105 105">		<path stroke-linejoin="round" d="m90.776 31.625l-27.25-27.672h-39.592c-5.363 0-9.71 4.348-9.71 9.71v77.676c0 5.359 4.347 9.708 9.71 9.708h57.133c5.362 0 9.71-4.349 9.71-9.708v-59.717" stroke="#6E7072" stroke-linecap="round" stroke-miterlimit="10" stroke-width="3" fill="#559DCC"/>		<polygon stroke-linejoin="round" points="90.776 31.625 63.526 31.625 63.526 3.953" stroke="#6E7072" stroke-linecap="round" stroke-miterlimit="10" stroke-width="3" fill="#6E7072"/>			<rect y="13.905" x="21.793" height="10.286" width="10.285" fill="#fff"/>			<rect y="36.014" x="21.793" height="10.285" width="10.285" fill="#fff"/>			<rect y="58.122" x="21.793" height="10.286" width="10.285" fill="#fff"/>			<rect y="80.23" x="21.793" height="10.287" width="10.285" fill="#fff"/>			<rect y="36.014" x="72.922" height="10.285" width="10.285" fill="#fff"/>			<rect y="58.122" x="72.922" height="10.286" width="10.285" fill="#fff"/>			<rect y="80.23" x="72.922" height="10.287" width="10.285" fill="#fff"/>	<path d="m63.292 54.498l-16.054-11.004c-0.445-0.306-1.023-0.339-1.501-0.087-0.479 0.252-0.777 0.748-0.777 1.287v22.01c0 0.539 0.299 1.037 0.777 1.285 0.212 0.113 0.445 0.169 0.679 0.169 0.289 0 0.577-0.085 0.822-0.257l16.054-11.002c0.396-0.269 0.631-0.721 0.631-1.2 0-0.481-0.235-0.929-0.631-1.201z" fill="#fff"/></svg><svg xmlns:xlink="http://www.w3.org/1999/xlink" id="video-v2" xml:space="preserve" height="105" viewBox="0 0 105 105" width="105" version="1.1" y="2520" x="0px" enable-background="new 0 0 105 105">		<rect transform="matrix(.9224 -.3861 .3861 .9224 -7.7007 22.31)" height="12.472" width="97" y="24.089" x="3.186" fill="#559DCC"/>		<defs>				<rect id="video-v2-SVGID_1_" transform="matrix(.9224 -.3861 .3861 .9224 -7.8076 22.153)" height="12.472" width="97.968" y="24.276" x="2.256"/>		</defs>		<clipPath id="video-v2-SVGID_2_">			<use overflow="visible" xlink:href="#video-v2-SVGID_1_"/>		</clipPath>		<g clip-path="url(#video-v2-SVGID_2_)">			<g stroke-linejoin="round" stroke="#fff" stroke-linecap="round" stroke-miterlimit="10" stroke-width="3" fill="none">					<line x1="28.591" y2="57.747" x2="11.292" y1="26.267"/>					<line x1="46.312" y2="50.323" x2="29.014" y1="18.848"/>					<line x1="64.034" y2="42.905" x2="46.735" y1="11.429"/>					<line x1="81.756" y2="35.487" x2="64.455" y1="4.011"/>					<line x1="99.478" y2="28.068" x2="82.18" y1="-3.409"/>			</g>		</g>		<rect stroke-linejoin="round" transform="matrix(.9224 -.3861 .3861 .9224 -7.7007 22.31)" height="12.472" width="97" stroke="#6E7072" stroke-linecap="round" stroke-miterlimit="10" y="24.089" x="3.186" stroke-width="3" fill="none"/>		<path stroke-linejoin="round" d="m4.475 55.842v32.527c0 5.958 4.827 10.786 10.783 10.786h75.456c5.958 0 10.786-4.828 10.786-10.786v-32.527h-97.025z" stroke="#6E7072" stroke-linecap="round" stroke-miterlimit="10" stroke-width="3" fill="#fff"/>	<path d="m68.361 75.092l-18.789-12.878c-0.521-0.359-1.199-0.396-1.758-0.103-0.559 0.296-0.91 0.876-0.91 1.508v25.758c0 0.632 0.352 1.212 0.91 1.508 0.25 0.131 0.521 0.196 0.795 0.196 0.338 0 0.674-0.101 0.963-0.299l18.789-12.878c0.463-0.317 0.738-0.843 0.738-1.406 0.001-0.562-0.275-1.089-0.738-1.406z" fill="#6E7072"/>	<rect y="43.354" x="4.33" height="12.379" width="97.311" fill="#559DCC"/>		<defs>			<rect id="video-v2-SVGID_3_" y="43.354" x="3.359" height="12.379" width="98.281"/>		</defs>		<clipPath id="video-v2-SVGID_4_">			<use overflow="visible" xlink:href="#video-v2-SVGID_3_"/>		</clipPath>		<g clip-path="url(#video-v2-SVGID_4_)">			<g stroke-linejoin="round" stroke="#fff" stroke-linecap="round" stroke-miterlimit="10" stroke-width="3" fill="none">					<line x1="33.188" y2="59.164" x2="4.984" y1="36.975"/>					<line x1="52.456" y2="59.164" x2="24.256" y1="36.975"/>					<line x1="71.731" y2="59.164" x2="43.53" y1="36.975"/>					<line x1="91.002" y2="59.164" x2="62.801" y1="36.975"/>					<line x1="110.28" y2="59.164" x2="82.076" y1="36.975"/>			</g>		</g>		<rect stroke-linejoin="round" height="12.379" width="97.311" stroke="#6E7072" stroke-linecap="round" stroke-miterlimit="10" y="43.354" x="4.33" stroke-width="3" fill="none"/>	<polygon points="18.234 56.671 4.984 56.671 4.984 42.414 24.234 42.414" fill="#6E7072"/></svg></svg>
