<head>
        <meta charset="utf-8">
        <meta name="viewport" content="width=device-width, initial-scale=1.0">
        <meta name="description" content="">
        <meta name="author" content="">
        <link rel="icon" href="css/img/favicon.ico" type="image/x-icon" />
        <link rel="shortcut icon" href="css/img/favicon.ico" type="image/x-icon" />
        <title>Live Help</title>
        <link href="css/bootstrap-lg.css" rel="stylesheet">
        
        <!-- HTML5 shim and Respond.js IE8 support of HTML5 elements and media queries -->
        <!--[if lt IE 9]>
<script src="js/html5shiv.js"></script>
<script src="js/respond.min.js"></script>
<![endif]-->
        <!--[if lt IE 8]>
<link href="css/bootstrap-ie7.css" rel="stylesheet">
<![endif]-->
        
    </head>
    <svg id="Layer_1" x="0px" y="0px" width="46px" height="68px" viewBox="0 0 23.012 34" enable-background="new 0 0 23.012 34" xml:space="preserve">
    <path class="circle animated  bounceIn" fill="white" d="M11.587,0.273C5.455,0.273,0.484,2.971,0.484,6.3c0,2.247,2.266,4.205,5.623,5.241  c0.446,1.28,1.442,1.977,1.442,1.977c-0.159-0.672-0.237-1.219-0.27-1.661c1.324,0.303,2.78,0.471,4.308,0.471  c6.133,0,11.104-2.698,11.104-6.027S17.72,0.273,11.587,0.273z"/>
    <g class="guy animated swing" >
        <path fill="white" d="M22.426,13.858h-2.464c0,5.97-4.339,6.991-8.375,7.909c-4.034-0.918-8.374-1.939-8.374-7.909H0.75   c0,5.692,2.904,8.148,6.123,9.451c-4.264,2.478-5.4,7.737-5.4,10.418h3.735c0-2.457,0.358-7.446,5.066-8.746   c0.403-0.111,0.851-0.219,1.313-0.327c0.464,0.108,0.912,0.216,1.314,0.327c4.708,1.3,5.066,6.289,5.066,8.746h3.736   c0-2.681-1.138-7.939-5.401-10.418C19.521,22.007,22.426,19.551,22.426,13.858z"/>
        <circle fill="white" cx="11.587" cy="16.988" r="3.581"/>
    </g>
</svg>